<svg version="1.1" id="Layer_1"
	xmlns="http://www.w3.org/2000/svg" x="0px" y="0px" viewBox="0 0 100 100">
	<style>
    rect {
      fill: #fff;
    }
	path: {
		fill: #333;
	}
    @media (prefers-color-scheme: dark) {
      rect {
        fill: #333;
      }
	  path: {
		fill: #ffffff;
	  }
    }
	</style>
	<rect x="0" y="0" width="100" height="100"/>
	<g>
		<path d="M95.7,41.1H72l-3-19.7c-0.7-3.6-4.1-6.7-7.7-6.7h-1.1c-2.2,0-5.7,1.8-8.5,3.1c-1,0.5-2.2,1.1-2.6,1.3
		c-0.4-0.1-1.7-0.8-2.7-1.2c-2.9-1.3-6.6-3.1-8.7-3.1H37c-3.5,0-7,3.1-7.7,6.7l-3,19.7H4.3C2,41.1,0,43,0,45.2c0,2.1,2,4,4.3,4h91.5
		c2.3,0,4.3-1.9,4.3-4C100,43,98,41.1,95.7,41.1L95.7,41.1z"/>
		<g>
			<path d="M73.3,54.4c-0.5-0.6-1.2-1-2-1H26.4c-0.8,0-1.5,0.5-2,1.1c-0.5,0.6-0.7,1.6-0.5,2.4l1.9,8.7c0.3,1.5,1.8,2.8,3.4,2.8h39.3
			c1.5,0,3-1.3,3.4-2.9l1.9-8.8C74,55.8,73.8,55,73.3,54.4z M44.9,60.9c-0.6,2.2-3.3,3.9-6.2,3.9l0,0c-0.7,0-1.3-0.1-2-0.3
			c-3.6-0.9-6.2-4.4-5.4-7.2c0.1-0.3,0.2-0.5,0.5-0.6c0.2-0.1,0.5-0.2,0.7-0.1l11.8,3C44.7,59.9,45,60.4,44.9,60.9z M60.8,64.6
			c-0.7,0.2-1.3,0.3-2,0.3l0,0c-3,0-5.7-1.7-6.2-3.9c-0.1-0.5,0.2-1.1,0.7-1.2l11.8-3c0.3-0.1,0.5,0,0.7,0.1
			c0.2,0.1,0.4,0.3,0.5,0.6C66.9,60.3,64.4,63.7,60.8,64.6z"/>
			<polygon points="68.5,68.3 68.5,68.3 68.5,68.3 		"/>
		</g>
	</g>
</svg>
